<mxfile host="app.diagrams.net" agent="Mozilla/5.0 (Windows NT 10.0; Win64; x64) AppleWebKit/537.36 (KHTML, like Gecko) Chrome/134.0.0.0 Safari/537.36 Edg/134.0.0.0" version="26.1.1">
  <diagram name="Page-1" id="n2HbwuNufLtKjAIBImdg">
    <mxGraphModel dx="697" dy="778" grid="1" gridSize="10" guides="1" tooltips="1" connect="1" arrows="1" fold="1" page="1" pageScale="1" pageWidth="850" pageHeight="1100" math="0" shadow="0">
      <root>
        <mxCell id="0" />
        <mxCell id="1" parent="0" />
        <mxCell id="3Djt_9vwnhP9ykRVNRtl-1" value="Screw Terminal Barrier Block 10-pos" style="rounded=0;whiteSpace=wrap;html=1;" vertex="1" parent="1">
          <mxGeometry x="200" y="130" width="50" height="190" as="geometry" />
        </mxCell>
        <mxCell id="3Djt_9vwnhP9ykRVNRtl-2" value="" style="endArrow=none;html=1;rounded=0;exitX=-0.04;exitY=0.085;exitDx=0;exitDy=0;exitPerimeter=0;" edge="1" parent="1">
          <mxGeometry width="50" height="50" relative="1" as="geometry">
            <mxPoint x="199" y="164" as="sourcePoint" />
            <mxPoint x="161" y="164" as="targetPoint" />
          </mxGeometry>
        </mxCell>
        <mxCell id="3Djt_9vwnhP9ykRVNRtl-3" value="" style="endArrow=none;html=1;rounded=0;exitX=-0.04;exitY=0.085;exitDx=0;exitDy=0;exitPerimeter=0;" edge="1" parent="1">
          <mxGeometry width="50" height="50" relative="1" as="geometry">
            <mxPoint x="200" y="178" as="sourcePoint" />
            <mxPoint x="162" y="178" as="targetPoint" />
          </mxGeometry>
        </mxCell>
        <mxCell id="3Djt_9vwnhP9ykRVNRtl-4" value="" style="endArrow=none;html=1;rounded=0;exitX=-0.04;exitY=0.085;exitDx=0;exitDy=0;exitPerimeter=0;" edge="1" parent="1">
          <mxGeometry width="50" height="50" relative="1" as="geometry">
            <mxPoint x="200" y="192" as="sourcePoint" />
            <mxPoint x="162" y="192" as="targetPoint" />
          </mxGeometry>
        </mxCell>
        <mxCell id="3Djt_9vwnhP9ykRVNRtl-5" value="" style="endArrow=none;html=1;rounded=0;exitX=-0.04;exitY=0.085;exitDx=0;exitDy=0;exitPerimeter=0;" edge="1" parent="1">
          <mxGeometry width="50" height="50" relative="1" as="geometry">
            <mxPoint x="201" y="206" as="sourcePoint" />
            <mxPoint x="163" y="206" as="targetPoint" />
          </mxGeometry>
        </mxCell>
        <mxCell id="3Djt_9vwnhP9ykRVNRtl-6" value="" style="endArrow=none;html=1;rounded=0;exitX=-0.04;exitY=0.085;exitDx=0;exitDy=0;exitPerimeter=0;" edge="1" parent="1">
          <mxGeometry width="50" height="50" relative="1" as="geometry">
            <mxPoint x="200" y="219" as="sourcePoint" />
            <mxPoint x="162" y="219" as="targetPoint" />
          </mxGeometry>
        </mxCell>
        <mxCell id="3Djt_9vwnhP9ykRVNRtl-7" value="" style="endArrow=none;html=1;rounded=0;exitX=-0.04;exitY=0.085;exitDx=0;exitDy=0;exitPerimeter=0;" edge="1" parent="1">
          <mxGeometry width="50" height="50" relative="1" as="geometry">
            <mxPoint x="201" y="233" as="sourcePoint" />
            <mxPoint x="163" y="233" as="targetPoint" />
          </mxGeometry>
        </mxCell>
        <mxCell id="3Djt_9vwnhP9ykRVNRtl-8" value="" style="endArrow=none;html=1;rounded=0;exitX=-0.04;exitY=0.085;exitDx=0;exitDy=0;exitPerimeter=0;" edge="1" parent="1">
          <mxGeometry width="50" height="50" relative="1" as="geometry">
            <mxPoint x="201" y="247" as="sourcePoint" />
            <mxPoint x="163" y="247" as="targetPoint" />
          </mxGeometry>
        </mxCell>
        <mxCell id="3Djt_9vwnhP9ykRVNRtl-9" value="" style="endArrow=none;html=1;rounded=0;exitX=-0.04;exitY=0.085;exitDx=0;exitDy=0;exitPerimeter=0;" edge="1" parent="1">
          <mxGeometry width="50" height="50" relative="1" as="geometry">
            <mxPoint x="201" y="261" as="sourcePoint" />
            <mxPoint x="163" y="261" as="targetPoint" />
          </mxGeometry>
        </mxCell>
        <mxCell id="3Djt_9vwnhP9ykRVNRtl-10" value="" style="endArrow=none;html=1;rounded=0;exitX=-0.04;exitY=0.085;exitDx=0;exitDy=0;exitPerimeter=0;" edge="1" parent="1">
          <mxGeometry width="50" height="50" relative="1" as="geometry">
            <mxPoint x="201" y="275" as="sourcePoint" />
            <mxPoint x="163" y="275" as="targetPoint" />
          </mxGeometry>
        </mxCell>
        <mxCell id="3Djt_9vwnhP9ykRVNRtl-11" value="" style="endArrow=none;html=1;rounded=0;exitX=-0.04;exitY=0.085;exitDx=0;exitDy=0;exitPerimeter=0;" edge="1" parent="1">
          <mxGeometry width="50" height="50" relative="1" as="geometry">
            <mxPoint x="201" y="289" as="sourcePoint" />
            <mxPoint x="163" y="289" as="targetPoint" />
          </mxGeometry>
        </mxCell>
        <mxCell id="3Djt_9vwnhP9ykRVNRtl-12" value="Limit SW1 Gnd" style="text;html=1;align=center;verticalAlign=middle;whiteSpace=wrap;rounded=0;" vertex="1" parent="1">
          <mxGeometry x="70" y="150" width="90" height="20" as="geometry" />
        </mxCell>
        <mxCell id="3Djt_9vwnhP9ykRVNRtl-13" value="Limit SW1 5V" style="text;html=1;align=center;verticalAlign=middle;whiteSpace=wrap;rounded=0;" vertex="1" parent="1">
          <mxGeometry x="70" y="166" width="90" height="20" as="geometry" />
        </mxCell>
        <mxCell id="3Djt_9vwnhP9ykRVNRtl-14" value="Limit SW2 Gnd" style="text;html=1;align=center;verticalAlign=middle;whiteSpace=wrap;rounded=0;" vertex="1" parent="1">
          <mxGeometry x="70" y="180" width="90" height="20" as="geometry" />
        </mxCell>
        <mxCell id="3Djt_9vwnhP9ykRVNRtl-15" value="Limit SW2 5V" style="text;html=1;align=center;verticalAlign=middle;whiteSpace=wrap;rounded=0;" vertex="1" parent="1">
          <mxGeometry x="72" y="196" width="90" height="20" as="geometry" />
        </mxCell>
        <mxCell id="3Djt_9vwnhP9ykRVNRtl-16" value="Encoder A" style="text;html=1;align=center;verticalAlign=middle;whiteSpace=wrap;rounded=0;" vertex="1" parent="1">
          <mxGeometry x="82" y="210" width="80" height="20" as="geometry" />
        </mxCell>
        <mxCell id="3Djt_9vwnhP9ykRVNRtl-17" value="Encoder B" style="text;html=1;align=center;verticalAlign=middle;whiteSpace=wrap;rounded=0;" vertex="1" parent="1">
          <mxGeometry x="82" y="224" width="80" height="20" as="geometry" />
        </mxCell>
        <mxCell id="3Djt_9vwnhP9ykRVNRtl-18" value="Encoder Z" style="text;html=1;align=center;verticalAlign=middle;whiteSpace=wrap;rounded=0;" vertex="1" parent="1">
          <mxGeometry x="82" y="237" width="80" height="20" as="geometry" />
        </mxCell>
        <mxCell id="3Djt_9vwnhP9ykRVNRtl-19" value="Encoder 5V" style="text;html=1;align=center;verticalAlign=middle;whiteSpace=wrap;rounded=0;" vertex="1" parent="1">
          <mxGeometry x="82" y="251" width="80" height="20" as="geometry" />
        </mxCell>
        <mxCell id="3Djt_9vwnhP9ykRVNRtl-20" value="Encoder Gnd" style="text;html=1;align=center;verticalAlign=middle;whiteSpace=wrap;rounded=0;" vertex="1" parent="1">
          <mxGeometry x="82" y="264" width="80" height="20" as="geometry" />
        </mxCell>
        <mxCell id="3Djt_9vwnhP9ykRVNRtl-21" value="Encoder Shiled" style="text;html=1;align=center;verticalAlign=middle;whiteSpace=wrap;rounded=0;" vertex="1" parent="1">
          <mxGeometry x="61" y="279" width="112" height="20" as="geometry" />
        </mxCell>
        <mxCell id="3Djt_9vwnhP9ykRVNRtl-22" value="4-Pos Screw Terminal" style="rounded=0;whiteSpace=wrap;html=1;" vertex="1" parent="1">
          <mxGeometry x="280" y="100" width="80" height="30" as="geometry" />
        </mxCell>
        <mxCell id="3Djt_9vwnhP9ykRVNRtl-23" value="" style="endArrow=none;html=1;rounded=0;entryX=0.25;entryY=0;entryDx=0;entryDy=0;" edge="1" parent="1">
          <mxGeometry width="50" height="50" relative="1" as="geometry">
            <mxPoint x="301" y="80" as="sourcePoint" />
            <mxPoint x="301" y="100" as="targetPoint" />
          </mxGeometry>
        </mxCell>
        <mxCell id="3Djt_9vwnhP9ykRVNRtl-24" value="" style="endArrow=none;html=1;rounded=0;entryX=0.25;entryY=0;entryDx=0;entryDy=0;" edge="1" parent="1">
          <mxGeometry width="50" height="50" relative="1" as="geometry">
            <mxPoint x="314" y="80" as="sourcePoint" />
            <mxPoint x="314" y="100" as="targetPoint" />
          </mxGeometry>
        </mxCell>
        <mxCell id="3Djt_9vwnhP9ykRVNRtl-25" value="" style="endArrow=none;html=1;rounded=0;entryX=0.25;entryY=0;entryDx=0;entryDy=0;" edge="1" parent="1">
          <mxGeometry width="50" height="50" relative="1" as="geometry">
            <mxPoint x="326" y="80" as="sourcePoint" />
            <mxPoint x="326" y="100" as="targetPoint" />
          </mxGeometry>
        </mxCell>
        <mxCell id="3Djt_9vwnhP9ykRVNRtl-26" value="" style="endArrow=none;html=1;rounded=0;entryX=0.25;entryY=0;entryDx=0;entryDy=0;" edge="1" parent="1">
          <mxGeometry width="50" height="50" relative="1" as="geometry">
            <mxPoint x="339" y="80" as="sourcePoint" />
            <mxPoint x="339" y="100" as="targetPoint" />
          </mxGeometry>
        </mxCell>
        <mxCell id="3Djt_9vwnhP9ykRVNRtl-28" value="5V" style="text;html=1;align=left;verticalAlign=middle;whiteSpace=wrap;rounded=0;rotation=-90;" vertex="1" parent="1">
          <mxGeometry x="283" y="59" width="35" height="10" as="geometry" />
        </mxCell>
        <mxCell id="3Djt_9vwnhP9ykRVNRtl-29" value="Gnd" style="text;html=1;align=left;verticalAlign=middle;whiteSpace=wrap;rounded=0;rotation=-90;" vertex="1" parent="1">
          <mxGeometry x="296" y="59" width="35" height="10" as="geometry" />
        </mxCell>
        <mxCell id="3Djt_9vwnhP9ykRVNRtl-30" value="SDA" style="text;html=1;align=left;verticalAlign=middle;whiteSpace=wrap;rounded=0;rotation=-90;" vertex="1" parent="1">
          <mxGeometry x="308" y="59" width="35" height="10" as="geometry" />
        </mxCell>
        <mxCell id="3Djt_9vwnhP9ykRVNRtl-31" value="SDC" style="text;html=1;align=left;verticalAlign=middle;whiteSpace=wrap;rounded=0;rotation=-90;" vertex="1" parent="1">
          <mxGeometry x="321" y="59" width="35" height="10" as="geometry" />
        </mxCell>
        <mxCell id="3Djt_9vwnhP9ykRVNRtl-32" value="6-Pos Screw Terminal" style="rounded=0;whiteSpace=wrap;html=1;" vertex="1" parent="1">
          <mxGeometry x="283" y="310" width="80" height="30" as="geometry" />
        </mxCell>
        <mxCell id="3Djt_9vwnhP9ykRVNRtl-37" value="" style="endArrow=none;html=1;rounded=0;entryX=0.25;entryY=0;entryDx=0;entryDy=0;" edge="1" parent="1">
          <mxGeometry width="50" height="50" relative="1" as="geometry">
            <mxPoint x="316" y="340" as="sourcePoint" />
            <mxPoint x="316" y="360" as="targetPoint" />
          </mxGeometry>
        </mxCell>
        <mxCell id="3Djt_9vwnhP9ykRVNRtl-38" value="" style="endArrow=none;html=1;rounded=0;entryX=0.25;entryY=0;entryDx=0;entryDy=0;" edge="1" parent="1">
          <mxGeometry width="50" height="50" relative="1" as="geometry">
            <mxPoint x="329" y="340" as="sourcePoint" />
            <mxPoint x="329" y="360" as="targetPoint" />
          </mxGeometry>
        </mxCell>
        <mxCell id="3Djt_9vwnhP9ykRVNRtl-39" value="" style="endArrow=none;html=1;rounded=0;entryX=0.25;entryY=0;entryDx=0;entryDy=0;" edge="1" parent="1">
          <mxGeometry width="50" height="50" relative="1" as="geometry">
            <mxPoint x="341" y="340" as="sourcePoint" />
            <mxPoint x="341" y="360" as="targetPoint" />
          </mxGeometry>
        </mxCell>
        <mxCell id="3Djt_9vwnhP9ykRVNRtl-40" value="" style="endArrow=none;html=1;rounded=0;entryX=0.25;entryY=0;entryDx=0;entryDy=0;" edge="1" parent="1">
          <mxGeometry width="50" height="50" relative="1" as="geometry">
            <mxPoint x="354" y="340" as="sourcePoint" />
            <mxPoint x="354" y="360" as="targetPoint" />
          </mxGeometry>
        </mxCell>
        <mxCell id="3Djt_9vwnhP9ykRVNRtl-41" value="" style="endArrow=none;html=1;rounded=0;entryX=0.25;entryY=0;entryDx=0;entryDy=0;" edge="1" parent="1">
          <mxGeometry width="50" height="50" relative="1" as="geometry">
            <mxPoint x="290" y="340" as="sourcePoint" />
            <mxPoint x="290" y="360" as="targetPoint" />
          </mxGeometry>
        </mxCell>
        <mxCell id="3Djt_9vwnhP9ykRVNRtl-42" value="" style="endArrow=none;html=1;rounded=0;entryX=0.25;entryY=0;entryDx=0;entryDy=0;" edge="1" parent="1">
          <mxGeometry width="50" height="50" relative="1" as="geometry">
            <mxPoint x="303" y="340" as="sourcePoint" />
            <mxPoint x="303" y="360" as="targetPoint" />
          </mxGeometry>
        </mxCell>
        <mxCell id="3Djt_9vwnhP9ykRVNRtl-43" value="Pul" style="text;html=1;align=right;verticalAlign=middle;whiteSpace=wrap;rounded=0;rotation=-90;" vertex="1" parent="1">
          <mxGeometry x="266" y="380" width="47" height="10" as="geometry" />
        </mxCell>
        <mxCell id="3Djt_9vwnhP9ykRVNRtl-44" value="Pul Gnd" style="text;html=1;align=right;verticalAlign=middle;whiteSpace=wrap;rounded=0;rotation=-90;" vertex="1" parent="1">
          <mxGeometry x="280" y="380" width="47" height="10" as="geometry" />
        </mxCell>
        <mxCell id="3Djt_9vwnhP9ykRVNRtl-45" value="Dir" style="text;html=1;align=right;verticalAlign=middle;whiteSpace=wrap;rounded=0;rotation=-90;" vertex="1" parent="1">
          <mxGeometry x="293" y="380" width="47" height="10" as="geometry" />
        </mxCell>
        <mxCell id="3Djt_9vwnhP9ykRVNRtl-46" value="Dir Gnd" style="text;html=1;align=right;verticalAlign=middle;whiteSpace=wrap;rounded=0;rotation=-90;" vertex="1" parent="1">
          <mxGeometry x="305" y="380" width="47" height="10" as="geometry" />
        </mxCell>
        <mxCell id="3Djt_9vwnhP9ykRVNRtl-47" value="Alarm" style="text;html=1;align=right;verticalAlign=middle;whiteSpace=wrap;rounded=0;rotation=-90;" vertex="1" parent="1">
          <mxGeometry x="317" y="380" width="47" height="10" as="geometry" />
        </mxCell>
        <mxCell id="3Djt_9vwnhP9ykRVNRtl-48" value="Alarm Gnd" style="text;html=1;align=right;verticalAlign=middle;whiteSpace=wrap;rounded=0;rotation=-90;" vertex="1" parent="1">
          <mxGeometry x="320.5" y="390.5" width="68" height="10" as="geometry" />
        </mxCell>
        <mxCell id="3Djt_9vwnhP9ykRVNRtl-53" style="edgeStyle=orthogonalEdgeStyle;rounded=0;orthogonalLoop=1;jettySize=auto;html=1;exitX=0;exitY=0.5;exitDx=0;exitDy=0;entryX=0;entryY=0.5;entryDx=0;entryDy=0;endArrow=none;startFill=0;" edge="1" parent="1" source="3Djt_9vwnhP9ykRVNRtl-49" target="3Djt_9vwnhP9ykRVNRtl-50">
          <mxGeometry relative="1" as="geometry" />
        </mxCell>
        <mxCell id="3Djt_9vwnhP9ykRVNRtl-49" value="RJ45" style="rounded=0;whiteSpace=wrap;html=1;" vertex="1" parent="1">
          <mxGeometry x="380" y="222" width="60" height="50" as="geometry" />
        </mxCell>
        <mxCell id="3Djt_9vwnhP9ykRVNRtl-50" value="RJ45" style="rounded=0;whiteSpace=wrap;html=1;" vertex="1" parent="1">
          <mxGeometry x="380" y="160" width="60" height="50" as="geometry" />
        </mxCell>
        <mxCell id="3Djt_9vwnhP9ykRVNRtl-55" style="edgeStyle=orthogonalEdgeStyle;rounded=0;orthogonalLoop=1;jettySize=auto;html=1;endArrow=none;startFill=0;" edge="1" parent="1" source="3Djt_9vwnhP9ykRVNRtl-54">
          <mxGeometry relative="1" as="geometry">
            <mxPoint x="360" y="215" as="targetPoint" />
          </mxGeometry>
        </mxCell>
        <mxCell id="3Djt_9vwnhP9ykRVNRtl-54" value="" style="ellipse;whiteSpace=wrap;html=1;aspect=fixed;" vertex="1" parent="1">
          <mxGeometry x="330" y="210" width="10" height="10" as="geometry" />
        </mxCell>
        <mxCell id="3Djt_9vwnhP9ykRVNRtl-57" value="Shield to Chassis" style="text;html=1;align=center;verticalAlign=middle;whiteSpace=wrap;rounded=0;" vertex="1" parent="1">
          <mxGeometry x="280" y="200" width="50" height="30" as="geometry" />
        </mxCell>
        <mxCell id="3Djt_9vwnhP9ykRVNRtl-58" value="" style="endArrow=none;dashed=1;html=1;rounded=0;entryX=0.5;entryY=1;entryDx=0;entryDy=0;" edge="1" parent="1" target="3Djt_9vwnhP9ykRVNRtl-54">
          <mxGeometry width="50" height="50" relative="1" as="geometry">
            <mxPoint x="200" y="290" as="sourcePoint" />
            <mxPoint x="340" y="220" as="targetPoint" />
            <Array as="points">
              <mxPoint x="335" y="290" />
            </Array>
          </mxGeometry>
        </mxCell>
        <mxCell id="3Djt_9vwnhP9ykRVNRtl-59" value="&lt;ul&gt;&lt;li&gt;&lt;font style=&quot;font-size: 8px;&quot;&gt;Motor Pul, Dir, Alarm&lt;/font&gt;&lt;/li&gt;&lt;li&gt;&lt;font style=&quot;font-size: 8px;&quot;&gt;5V&lt;/font&gt;&lt;/li&gt;&lt;li&gt;&lt;font style=&quot;font-size: 8px;&quot;&gt;Gnd&lt;/font&gt;&lt;/li&gt;&lt;/ul&gt;" style="text;html=1;align=left;verticalAlign=middle;whiteSpace=wrap;rounded=0;" vertex="1" parent="1">
          <mxGeometry x="420" y="232" width="130" height="30" as="geometry" />
        </mxCell>
        <mxCell id="3Djt_9vwnhP9ykRVNRtl-62" value="&lt;ul&gt;&lt;li&gt;&lt;span style=&quot;font-size: 8px;&quot;&gt;Limit Switches&lt;/span&gt;&lt;/li&gt;&lt;li&gt;&lt;span style=&quot;font-size: 8px;&quot;&gt;Encoder 5V&lt;/span&gt;&lt;/li&gt;&lt;li&gt;&lt;span style=&quot;font-size: 8px;&quot;&gt;Encoder Gnd&lt;/span&gt;&lt;/li&gt;&lt;li&gt;&lt;span style=&quot;font-size: 8px;&quot;&gt;Encoder A, B, Z&lt;/span&gt;&lt;/li&gt;&lt;/ul&gt;" style="text;html=1;align=left;verticalAlign=middle;whiteSpace=wrap;rounded=0;" vertex="1" parent="1">
          <mxGeometry x="420" y="170" width="130" height="30" as="geometry" />
        </mxCell>
        <mxCell id="3Djt_9vwnhP9ykRVNRtl-63" value="" style="verticalLabelPosition=bottom;shadow=0;dashed=0;align=center;html=1;verticalAlign=top;shape=mxgraph.electrical.opto_electronics.led_2;pointerEvents=1;" vertex="1" parent="1">
          <mxGeometry x="420" y="85.5" width="24" height="19" as="geometry" />
        </mxCell>
        <mxCell id="3Djt_9vwnhP9ykRVNRtl-65" value="Limit Sw 1 Active" style="text;html=1;align=center;verticalAlign=middle;resizable=0;points=[];autosize=1;strokeColor=none;fillColor=none;" vertex="1" parent="1">
          <mxGeometry x="440" y="85.5" width="110" height="30" as="geometry" />
        </mxCell>
        <mxCell id="3Djt_9vwnhP9ykRVNRtl-66" value="" style="verticalLabelPosition=bottom;shadow=0;dashed=0;align=center;html=1;verticalAlign=top;shape=mxgraph.electrical.opto_electronics.led_2;pointerEvents=1;" vertex="1" parent="1">
          <mxGeometry x="420" y="110" width="24" height="19" as="geometry" />
        </mxCell>
        <mxCell id="3Djt_9vwnhP9ykRVNRtl-67" value="Limit Sw2 Active" style="text;html=1;align=center;verticalAlign=middle;resizable=0;points=[];autosize=1;strokeColor=none;fillColor=none;" vertex="1" parent="1">
          <mxGeometry x="440" y="104.5" width="110" height="30" as="geometry" />
        </mxCell>
        <mxCell id="3Djt_9vwnhP9ykRVNRtl-68" value="" style="verticalLabelPosition=bottom;shadow=0;dashed=0;align=center;html=1;verticalAlign=top;shape=mxgraph.electrical.opto_electronics.led_2;pointerEvents=1;" vertex="1" parent="1">
          <mxGeometry x="420" y="55.5" width="24" height="19" as="geometry" />
        </mxCell>
        <mxCell id="3Djt_9vwnhP9ykRVNRtl-69" value="On-LED" style="text;html=1;align=center;verticalAlign=middle;resizable=0;points=[];autosize=1;strokeColor=none;fillColor=none;" vertex="1" parent="1">
          <mxGeometry x="440" y="50" width="70" height="30" as="geometry" />
        </mxCell>
        <mxCell id="3Djt_9vwnhP9ykRVNRtl-70" value="&lt;b&gt;&lt;font style=&quot;font-size: 18px;&quot;&gt;Dish Interface Board&lt;/font&gt;&lt;/b&gt;" style="text;html=1;align=center;verticalAlign=middle;whiteSpace=wrap;rounded=0;" vertex="1" parent="1">
          <mxGeometry x="82" y="39" width="180" height="30" as="geometry" />
        </mxCell>
        <mxCell id="3Djt_9vwnhP9ykRVNRtl-71" value="Mounts on dish axis and connects to controlling devices" style="text;html=1;align=center;verticalAlign=middle;whiteSpace=wrap;rounded=0;" vertex="1" parent="1">
          <mxGeometry x="87" y="69" width="170" height="30" as="geometry" />
        </mxCell>
      </root>
    </mxGraphModel>
  </diagram>
</mxfile>
